<?xml version="1.0" encoding="UTF-8"?><svg id="Capa_1" xmlns="http://www.w3.org/2000/svg" viewBox="0 0 289.53 146.5"><defs><style>.cls-1{fill:#eb98a1;}.cls-2{letter-spacing:-.01em;}.cls-3{fill:#f1af9c;}.cls-4{fill:#f2bcc2;}.cls-5{fill:#fdf2ec;}.cls-6{fill:#e7b341;}.cls-7{letter-spacing:0em;}.cls-8{fill:#1d1d1b;font-family:MyriadPro-Regular, 'Myriad Pro';font-size:9.84px;}.cls-9{fill:#e99c82;}</style></defs><path class="cls-5" d="M135.88,132.83c-2.55,0-4.62,2.07-4.62,4.62s2.07,4.62,4.62,4.62,4.62-2.07,4.62-4.62-2.07-4.62-4.62-4.62h0Zm0,7.63c-1.66,0-3-1.35-3-3s1.35-3,3-3,3,1.34,3,3c0,1.66-1.34,3-3,3h0Z"/><circle class="cls-5" cx="140.68" cy="132.66" r="1.08"/><path class="cls-5" d="M144.41,131.57c-.47-1.21-1.42-2.16-2.63-2.63-.7-.26-1.44-.4-2.19-.42-.96-.04-1.27-.05-3.71-.05s-2.76,0-3.71,.05c-.75,.01-1.49,.16-2.18,.42-1.21,.47-2.17,1.42-2.63,2.63-.26,.7-.4,1.44-.42,2.19-.04,.96-.06,1.27-.06,3.71s0,2.75,.06,3.71c.02,.75,.16,1.49,.42,2.19,.47,1.21,1.42,2.16,2.63,2.63,.7,.27,1.43,.43,2.18,.45,.96,.04,1.27,.06,3.71,.06s2.76,0,3.71-.06c.75-.01,1.49-.16,2.19-.42,1.21-.47,2.16-1.42,2.63-2.63,.26-.7,.4-1.44,.42-2.19,.04-.96,.06-1.27,.06-3.71s0-2.75-.06-3.71c-.01-.76-.15-1.51-.42-2.22Zm-1.22,9.53c0,.58-.11,1.15-.31,1.69-.31,.79-.93,1.41-1.71,1.71-.53,.2-1.1,.3-1.67,.31-.95,.04-1.22,.06-3.65,.06s-2.69,0-3.65-.06c-.57,0-1.14-.11-1.67-.31-.79-.3-1.41-.92-1.72-1.71-.2-.53-.3-1.1-.31-1.67-.04-.95-.05-1.22-.05-3.65s0-2.69,.05-3.65c0-.58,.11-1.15,.31-1.69,.3-.79,.93-1.41,1.72-1.71,.53-.2,1.1-.3,1.67-.31,.95-.04,1.22-.05,3.65-.05s2.69,0,3.65,.05c.57,0,1.14,.11,1.67,.31,.79,.3,1.41,.93,1.71,1.71,.2,.53,.3,1.1,.31,1.67,.04,.95,.05,1.22,.05,3.65s0,2.7-.04,3.65h-.01Z"/><path class="cls-5" d="M1.71,10.68C3.9,6.08,7.58,3.79,8.85,3.01,15.14-.8,24.57-1.4,31.63,3.61c5.51,3.91,7.23,9.58,7.74,11.35,.59,2.05,2.13,7.74-.65,13.9-2.63,5.81-7.41,8.41-8.7,9.09-7.37,3.87-18.09,3.36-24.54-3.25C-.25,28.85-.04,20.84,.02,18.47c.04-1.71,.15-4.57,1.69-7.79Z"/><path class="cls-1" d="M52.8,10.68c2.2-4.59,5.87-6.89,7.14-7.66,6.29-3.82,15.72-4.42,22.78,.59,5.51,3.91,7.23,9.58,7.74,11.35,.59,2.05,2.13,7.74-.65,13.9-2.63,5.81-7.41,8.41-8.7,9.09-7.37,3.87-18.09,3.36-24.54-3.25-5.72-5.85-5.51-13.86-5.45-16.23,.04-1.71,.15-4.57,1.69-7.79Z"/><path class="cls-3" d="M105.61,10.68c2.2-4.59,5.87-6.89,7.14-7.66,6.29-3.82,15.72-4.42,22.78,.59,5.51,3.91,7.23,9.58,7.74,11.35,.59,2.05,2.13,7.74-.65,13.9-2.63,5.81-7.41,8.41-8.7,9.09-7.37,3.87-18.09,3.36-24.54-3.25-5.72-5.85-5.51-13.86-5.45-16.23,.04-1.71,.15-4.57,1.69-7.79Z"/><path class="cls-4" d="M154.4,10.68c2.2-4.59,5.87-6.89,7.14-7.66,6.29-3.82,15.72-4.42,22.78,.59,5.51,3.91,7.23,9.58,7.74,11.35,.59,2.05,2.13,7.74-.65,13.9-2.63,5.81-7.41,8.41-8.7,9.09-7.37,3.87-18.09,3.36-24.54-3.25-5.72-5.85-5.51-13.86-5.45-16.23,.04-1.71,.15-4.57,1.69-7.79Z"/><path class="cls-9" d="M202.12,10.68c2.2-4.59,5.87-6.89,7.14-7.66,6.29-3.82,15.72-4.42,22.78,.59,5.51,3.91,7.23,9.58,7.74,11.35,.59,2.05,2.13,7.74-.65,13.9-2.63,5.81-7.41,8.41-8.7,9.09-7.37,3.87-18.09,3.36-24.54-3.25-5.72-5.85-5.51-13.86-5.45-16.23,.04-1.71,.15-4.57,1.69-7.79Z"/><path class="cls-6" d="M250.91,10.68c2.2-4.59,5.87-6.89,7.14-7.66,6.29-3.82,15.72-4.42,22.78,.59,5.51,3.91,7.23,9.58,7.74,11.35,.59,2.05,2.13,7.74-.65,13.9-2.63,5.81-7.41,8.41-8.7,9.09-7.37,3.87-18.09,3.36-24.54-3.25-5.72-5.85-5.51-13.86-5.45-16.23,.04-1.71,.15-4.57,1.69-7.79Z"/><text class="cls-8" transform="translate(5.35 56.24)"><tspan class="cls-2" x="0" y="0">f</tspan><tspan class="cls-7" x="2.75" y="0">ef3ed</tspan></text><text class="cls-8" transform="translate(57.43 54.24)"><tspan x="0" y="0">ec99a2</tspan></text><text class="cls-8" transform="translate(108.46 53.36)"><tspan x="0" y="0">f2b09d</tspan></text><text class="cls-8" transform="translate(154.63 54.02)"><tspan x="0" y="0">f3bdc3</tspan></text><text class="cls-8" transform="translate(202.21 54.13)"><tspan x="0" y="0">ea9d83</tspan></text><text class="cls-8" transform="translate(249.2 53.36)"><tspan x="0" y="0">e8b441</tspan></text></svg>